<mxfile host="Electron" agent="Mozilla/5.0 (Windows NT 10.0; Win64; x64) AppleWebKit/537.36 (KHTML, like Gecko) draw.io/26.2.2 Chrome/134.0.6998.178 Electron/35.1.2 Safari/537.36" version="26.2.2">
  <diagram name="Page-1" id="hBsGR3FwR8M0Vy2wRAgo">
    <mxGraphModel dx="1428" dy="841" grid="1" gridSize="10" guides="1" tooltips="1" connect="1" arrows="1" fold="1" page="1" pageScale="1" pageWidth="850" pageHeight="1100" math="0" shadow="0">
      <root>
        <mxCell id="0" />
        <mxCell id="1" parent="0" />
        <mxCell id="S-cTB6cXKM29yE-Q0J6t-2" value="Database Compose" style="swimlane;whiteSpace=wrap;html=1;" parent="1" vertex="1">
          <mxGeometry x="400" y="110" width="360" height="320" as="geometry">
            <mxRectangle x="400" y="110" width="150" height="30" as="alternateBounds" />
          </mxGeometry>
        </mxCell>
        <mxCell id="S-cTB6cXKM29yE-Q0J6t-4" value="&lt;div&gt;pgadmin&lt;/div&gt;web-based tool" style="rounded=1;whiteSpace=wrap;html=1;" parent="S-cTB6cXKM29yE-Q0J6t-2" vertex="1">
          <mxGeometry x="25" y="30" width="165" height="70" as="geometry" />
        </mxCell>
        <mxCell id="S-cTB6cXKM29yE-Q0J6t-6" value="PostgreSQL Instance" style="swimlane;whiteSpace=wrap;html=1;" parent="S-cTB6cXKM29yE-Q0J6t-2" vertex="1">
          <mxGeometry x="20" y="120" width="330" height="190" as="geometry">
            <mxRectangle x="20" y="120" width="150" height="30" as="alternateBounds" />
          </mxGeometry>
        </mxCell>
        <mxCell id="S-cTB6cXKM29yE-Q0J6t-7" value="Task Manager DB" style="shape=cylinder3;whiteSpace=wrap;html=1;boundedLbl=1;backgroundOutline=1;size=15;" parent="S-cTB6cXKM29yE-Q0J6t-6" vertex="1">
          <mxGeometry x="30" y="50" width="90" height="120" as="geometry" />
        </mxCell>
        <mxCell id="S-cTB6cXKM29yE-Q0J6t-9" style="edgeStyle=orthogonalEdgeStyle;rounded=0;orthogonalLoop=1;jettySize=auto;html=1;startArrow=classic;startFill=1;" parent="1" source="S-cTB6cXKM29yE-Q0J6t-8" target="S-cTB6cXKM29yE-Q0J6t-4" edge="1">
          <mxGeometry relative="1" as="geometry" />
        </mxCell>
        <mxCell id="S-cTB6cXKM29yE-Q0J6t-10" value="5050" style="edgeLabel;html=1;align=center;verticalAlign=middle;resizable=0;points=[];fontSize=20;" parent="S-cTB6cXKM29yE-Q0J6t-9" vertex="1" connectable="0">
          <mxGeometry x="-0.119" y="2" relative="1" as="geometry">
            <mxPoint x="1" y="1" as="offset" />
          </mxGeometry>
        </mxCell>
        <mxCell id="S-cTB6cXKM29yE-Q0J6t-8" value="Admin User&lt;div&gt;Laptop&lt;/div&gt;" style="rounded=1;whiteSpace=wrap;html=1;" parent="1" vertex="1">
          <mxGeometry x="40" y="165" width="130" height="70" as="geometry" />
        </mxCell>
        <mxCell id="S-cTB6cXKM29yE-Q0J6t-12" style="edgeStyle=orthogonalEdgeStyle;rounded=0;orthogonalLoop=1;jettySize=auto;html=1;entryX=0;entryY=0.5;entryDx=0;entryDy=0;" parent="1" source="S-cTB6cXKM29yE-Q0J6t-11" target="S-cTB6cXKM29yE-Q0J6t-6" edge="1">
          <mxGeometry relative="1" as="geometry" />
        </mxCell>
        <mxCell id="S-cTB6cXKM29yE-Q0J6t-13" value="5432" style="edgeLabel;html=1;align=center;verticalAlign=middle;resizable=0;points=[];fontSize=20;" parent="S-cTB6cXKM29yE-Q0J6t-12" vertex="1" connectable="0">
          <mxGeometry x="-0.3366" y="-1" relative="1" as="geometry">
            <mxPoint as="offset" />
          </mxGeometry>
        </mxCell>
        <mxCell id="S-cTB6cXKM29yE-Q0J6t-11" value="Ansible Control&amp;nbsp;&lt;div&gt;Node&lt;/div&gt;" style="rounded=1;whiteSpace=wrap;html=1;" parent="1" vertex="1">
          <mxGeometry x="70" y="220" width="130" height="70" as="geometry" />
        </mxCell>
        <mxCell id="S-cTB6cXKM29yE-Q0J6t-14" value="Docker &quot;shared_network&quot;" style="swimlane;whiteSpace=wrap;html=1;" parent="1" vertex="1">
          <mxGeometry x="210" y="60" width="595" height="780" as="geometry" />
        </mxCell>
        <mxCell id="S-cTB6cXKM29yE-Q0J6t-15" value="Django Backend&lt;div&gt;task_manager&lt;/div&gt;&lt;div&gt;ORM&lt;/div&gt;" style="rounded=1;whiteSpace=wrap;html=1;" parent="S-cTB6cXKM29yE-Q0J6t-14" vertex="1">
          <mxGeometry x="177.5" y="430" width="215" height="70" as="geometry" />
        </mxCell>
        <mxCell id="S-cTB6cXKM29yE-Q0J6t-21" style="edgeStyle=orthogonalEdgeStyle;rounded=0;orthogonalLoop=1;jettySize=auto;html=1;entryX=0.5;entryY=1;entryDx=0;entryDy=0;" parent="S-cTB6cXKM29yE-Q0J6t-14" source="S-cTB6cXKM29yE-Q0J6t-18" target="S-cTB6cXKM29yE-Q0J6t-15" edge="1">
          <mxGeometry relative="1" as="geometry" />
        </mxCell>
        <mxCell id="S-cTB6cXKM29yE-Q0J6t-22" value="Text" style="edgeLabel;html=1;align=center;verticalAlign=middle;resizable=0;points=[];" parent="S-cTB6cXKM29yE-Q0J6t-21" vertex="1" connectable="0">
          <mxGeometry x="0.1591" relative="1" as="geometry">
            <mxPoint as="offset" />
          </mxGeometry>
        </mxCell>
        <mxCell id="S-cTB6cXKM29yE-Q0J6t-24" value="&lt;font style=&quot;font-size: 20px;&quot;&gt;8000&lt;/font&gt;" style="edgeLabel;html=1;align=center;verticalAlign=middle;resizable=0;points=[];" parent="S-cTB6cXKM29yE-Q0J6t-21" vertex="1" connectable="0">
          <mxGeometry x="0.1136" relative="1" as="geometry">
            <mxPoint as="offset" />
          </mxGeometry>
        </mxCell>
        <mxCell id="S-cTB6cXKM29yE-Q0J6t-18" value="Frontend&lt;div&gt;Django web-app&lt;/div&gt;" style="rounded=1;whiteSpace=wrap;html=1;" parent="S-cTB6cXKM29yE-Q0J6t-14" vertex="1">
          <mxGeometry x="175" y="588" width="220" height="100" as="geometry" />
        </mxCell>
        <mxCell id="qtZ8zI4BCVLFHwUG2jCJ-1" value="container: &quot;backend&quot;" style="text;html=1;align=center;verticalAlign=middle;whiteSpace=wrap;rounded=0;" vertex="1" parent="S-cTB6cXKM29yE-Q0J6t-14">
          <mxGeometry x="110" y="450" width="60" height="30" as="geometry" />
        </mxCell>
        <mxCell id="qtZ8zI4BCVLFHwUG2jCJ-2" value="container: &quot;frontend&quot;" style="text;html=1;align=center;verticalAlign=middle;whiteSpace=wrap;rounded=0;" vertex="1" parent="S-cTB6cXKM29yE-Q0J6t-14">
          <mxGeometry x="110" y="588" width="60" height="30" as="geometry" />
        </mxCell>
        <mxCell id="qtZ8zI4BCVLFHwUG2jCJ-3" value="container: &quot;db&quot;" style="text;html=1;align=center;verticalAlign=middle;whiteSpace=wrap;rounded=0;" vertex="1" parent="S-cTB6cXKM29yE-Q0J6t-14">
          <mxGeometry x="430" y="140" width="60" height="30" as="geometry" />
        </mxCell>
        <mxCell id="S-cTB6cXKM29yE-Q0J6t-16" style="edgeStyle=orthogonalEdgeStyle;rounded=0;orthogonalLoop=1;jettySize=auto;html=1;entryX=0.5;entryY=1;entryDx=0;entryDy=0;entryPerimeter=0;" parent="1" source="S-cTB6cXKM29yE-Q0J6t-15" target="S-cTB6cXKM29yE-Q0J6t-7" edge="1">
          <mxGeometry relative="1" as="geometry" />
        </mxCell>
        <mxCell id="S-cTB6cXKM29yE-Q0J6t-17" value="5432" style="edgeLabel;html=1;align=center;verticalAlign=middle;resizable=0;points=[];fontSize=20;" parent="S-cTB6cXKM29yE-Q0J6t-16" vertex="1" connectable="0">
          <mxGeometry x="-0.2046" y="-3" relative="1" as="geometry">
            <mxPoint x="1" as="offset" />
          </mxGeometry>
        </mxCell>
        <mxCell id="S-cTB6cXKM29yE-Q0J6t-27" value="Users" style="rounded=1;whiteSpace=wrap;html=1;" parent="1" vertex="1">
          <mxGeometry x="40" y="600" width="130" height="70" as="geometry" />
        </mxCell>
        <mxCell id="S-cTB6cXKM29yE-Q0J6t-28" value="user1" style="shape=umlActor;verticalLabelPosition=bottom;verticalAlign=top;html=1;outlineConnect=0;" parent="1" vertex="1">
          <mxGeometry x="60" y="660" width="30" height="60" as="geometry" />
        </mxCell>
        <mxCell id="S-cTB6cXKM29yE-Q0J6t-29" style="edgeStyle=orthogonalEdgeStyle;rounded=0;orthogonalLoop=1;jettySize=auto;html=1;entryX=0.018;entryY=0.57;entryDx=0;entryDy=0;entryPerimeter=0;" parent="1" source="S-cTB6cXKM29yE-Q0J6t-27" target="S-cTB6cXKM29yE-Q0J6t-18" edge="1">
          <mxGeometry relative="1" as="geometry" />
        </mxCell>
        <mxCell id="S-cTB6cXKM29yE-Q0J6t-30" value="&lt;font style=&quot;font-size: 20px;&quot;&gt;3000&lt;/font&gt;" style="edgeLabel;html=1;align=center;verticalAlign=middle;resizable=0;points=[];" parent="S-cTB6cXKM29yE-Q0J6t-29" vertex="1" connectable="0">
          <mxGeometry x="-0.1037" y="4" relative="1" as="geometry">
            <mxPoint y="1" as="offset" />
          </mxGeometry>
        </mxCell>
      </root>
    </mxGraphModel>
  </diagram>
</mxfile>
